<svg width="170" height="170" viewBox="0 0 170 170" fill="none" xmlns="http://www.w3.org/2000/svg">
<circle cx="85" cy="85" r="85" fill="black"/>
<path d="M33.375 39.375C36.0417 39.4583 38.375 39.5 40.375 39.5C42.375 39.4167 44 39.375 45.25 39.375H48.875C49.7917 39.2917 50.9167 39.25 52.25 39.25C53.4167 39.25 54.8333 39.25 56.5 39.25C58.1667 39.25 60.0833 39.2917 62.25 39.375C62.9167 41.7083 63.6667 44 64.5 46.25C65.4167 48.4167 66.2083 50.375 66.875 52.125C67.7083 54.2083 68.5417 56.1667 69.375 58C70.2083 59.8333 71.2083 62.0417 72.375 64.625C73.375 66.7917 74.5833 69.4583 76 72.625C77.4167 75.7083 79.0833 79.25 81 83.25C81.9167 80.6667 82.75 78.2917 83.5 76.125C84.3333 73.9583 85.0417 72.0833 85.625 70.5C86.2917 68.6667 86.8333 67 87.25 65.5C87.6667 64 88.125 62.1667 88.625 60C89.0417 58.1667 89.5 55.9583 90 53.375C90.5833 50.7917 91.1667 47.7917 91.75 44.375C94.1667 44.375 96.3333 44.375 98.25 44.375C100.167 44.375 101.833 44.3333 103.25 44.25C104.833 44.25 106.25 44.2083 107.5 44.125C108.833 44.125 110.625 44.0417 112.875 43.875C114.792 43.7083 117.333 43.5833 120.5 43.5C123.75 43.3333 127.75 43.125 132.5 42.875C130.75 44.125 129.333 45.375 128.25 46.625C127.25 47.7917 126.458 48.8333 125.875 49.75C125.208 50.8333 124.792 51.875 124.625 52.875C124.458 53.7083 124.292 55.625 124.125 58.625C124.042 61.625 123.917 65.2083 123.75 69.375C123.667 73.4583 123.583 77.8333 123.5 82.5C123.5 87.1667 123.542 91.5833 123.625 95.75C123.708 99.9167 123.833 103.542 124 106.625C124.25 109.625 124.583 111.542 125 112.375C125.583 113.375 126.375 114.542 127.375 115.875C128.292 117.042 129.458 118.375 130.875 119.875C132.375 121.375 134.333 123.042 136.75 124.875C132.917 125.042 129.708 125.167 127.125 125.25C124.625 125.333 122.542 125.417 120.875 125.5C118.958 125.583 117.417 125.625 116.25 125.625C115 125.625 113.292 125.667 111.125 125.75C109.208 125.833 106.667 125.958 103.5 126.125C100.333 126.208 96.25 126.375 91.25 126.625C92.4167 125.292 93.5 123.958 94.5 122.625C95.5 121.292 96.3333 120.083 97 119C97.8333 117.75 98.5417 116.542 99.125 115.375C99.7083 113.792 100.167 110.917 100.5 106.75C100.833 103.167 101.083 98.0417 101.25 91.375C101.417 84.625 101.417 75.5833 101.25 64.25C99.6667 66.8333 98.25 69.4167 97 72C95.8333 74.5 94.7917 76.7917 93.875 78.875C92.875 81.2917 91.9583 83.625 91.125 85.875C90.2917 88.2083 89.4167 90.7917 88.5 93.625C87.6667 96.0417 86.6667 98.9167 85.5 102.25C84.4167 105.583 83.1667 109.25 81.75 113.25L77 113.5C76.3333 110.167 75.6667 107.167 75 104.5C74.3333 101.75 73.6667 99.4167 73 97.5C72.25 95.25 71.5 93.25 70.75 91.5C69.9167 89.75 69 87.7917 68 85.625C67.0833 83.7917 65.9583 81.625 64.625 79.125C63.375 76.625 61.9167 73.8333 60.25 70.75C59.4167 79.25 58.9167 86.1667 58.75 91.5C58.5833 96.75 58.5833 100.833 58.75 103.75C58.9167 107.25 59.1667 109.792 59.5 111.375C60 112.792 60.7917 114.375 61.875 116.125C62.7917 117.625 64.0417 119.417 65.625 121.5C67.2917 123.5 69.4167 125.75 72 128.25C70.1667 128.25 68.25 128.25 66.25 128.25C64.25 128.25 62.4167 128.292 60.75 128.375C58.75 128.458 56.7917 128.5 54.875 128.5C52.875 128.583 50.5417 128.708 47.875 128.875C45.5417 129.042 42.75 129.208 39.5 129.375C36.25 129.542 32.5 129.833 28.25 130.25C30.0833 129.083 31.5833 127.958 32.75 126.875C33.9167 125.708 34.8333 124.667 35.5 123.75C36.3333 122.667 36.9583 121.583 37.375 120.5C37.625 119.833 37.8333 118.375 38 116.125C38.25 113.875 38.4583 111.125 38.625 107.875C38.875 104.625 39.0417 101 39.125 97C39.2917 93 39.4167 88.9583 39.5 84.875C39.6667 80.7083 39.7917 76.6667 39.875 72.75C39.9583 68.75 40 65.1667 40 62C40.0833 58.75 40.125 56.0417 40.125 53.875C40.125 51.7083 40.125 50.3333 40.125 49.75C39.875 48.5 39.5 47.25 39 46C38.5833 44.9167 37.9167 43.7917 37 42.625C36.0833 41.4583 34.875 40.375 33.375 39.375Z" fill="white" fill-opacity="0.8"/>
</svg>
